<svg xmlns="http://www.w3.org/2000/svg" width="44.776" height="45.127" viewBox="0 0 44.776 45.127">
  <title>cog</title>
  <g>
    <path d="M22.366,13.522a9.017,9.017,0,1,0,9.017,9.017,9.027,9.027,0,0,0-9.017-9.017m0,16.034a7.017,7.017,0,1,1,7.017-7.017,7.025,7.025,0,0,1-7.017,7.017" fill="#94a1ac"/>
    <path d="M44.272,26.829l-3.384-1.937-.009-4.42,3.391-1.94a1,1,0,0,0,.479-1.091A22.793,22.793,0,0,0,41.884,10.4a1,1,0,0,0-1.1-.437L37,10.96,33.889,7.836l.991-3.75a1,1,0,0,0-.444-1.108A22.87,22.87,0,0,0,27.416.111a1,1,0,0,0-1.077.478L24.887,3.056H20.46L18.952.5A1,1,0,0,0,17.9.019a22.792,22.792,0,0,0-7.844,3.172,1,1,0,0,0-.428,1.094l.733,2.79L7.23,10.206,4.377,9.458a1,1,0,0,0-1.087.414,22.729,22.729,0,0,0-3.2,7.58,1.074,1.074,0,0,0,.583,1.089l2.709,1.493v4.409L.552,26.007a1.036,1.036,0,0,0-.536,1.063,22.686,22.686,0,0,0,2.952,7.545.981.981,0,0,0,1.1.44l2.95-.8,3.109,3.118-.856,3.164a1,1,0,0,0,.407,1.091,22.835,22.835,0,0,0,7.389,3.311,1,1,0,0,0,1.095-.465l1.687-2.865,4.42,0,1.78,3.023a1,1,0,0,0,1.065.472,23.058,23.058,0,0,0,7.343-2.794,1,1,0,0,0,.451-1.094l-.863-3.48,3.139-3.143,3.6.9a1,1,0,0,0,1.083-.43,22.641,22.641,0,0,0,2.881-7.132,1,1,0,0,0-.477-1.1m-3.716,6.543-3.442-.854a1,1,0,0,0-.948.264l-3.937,3.942a1,1,0,0,0-.263.948l.818,3.3A21.141,21.141,0,0,1,27.4,42.994L25.7,40.1a1.025,1.025,0,0,0-.861-.518l-5.564-.03h0a1.026,1.026,0,0,0-.862.518l-1.594,2.721a20.822,20.822,0,0,1-5.431-2.446l.816-3.017a1,1,0,0,0-.258-.965l-3.93-3.937a1,1,0,0,0-.969-.259l-2.783.754a20.712,20.712,0,0,1-2.187-5.547l2.7-1.488a1.108,1.108,0,0,0,.608-.866V19.455a1.111,1.111,0,0,0-.608-.868L2.269,17.18a20.687,20.687,0,0,1,2.331-5.6l2.69.709a.989.989,0,0,0,.955-.26l3.934-3.943a1,1,0,0,0,.258-.96l-.691-2.63A20.763,20.763,0,0,1,17.6,2.126l1.43,2.429a1.013,1.013,0,0,0,.861.5h5.568a1.01,1.01,0,0,0,.86-.5l1.367-2.316A20.862,20.862,0,0,1,32.755,4.31L31.81,7.882a1,1,0,0,0,.259.961L36,12.781a1,1,0,0,0,.963.26l3.607-.952a20.831,20.831,0,0,1,2.057,5.082l-3.241,1.854a1,1,0,0,0-.5.87l.01,5.579a1,1,0,0,0,.5.866l3.23,1.849a20.757,20.757,0,0,1-2.068,5.182" fill="#94a1ac"/>
  </g>
</svg>
