<svg xmlns="http://www.w3.org/2000/svg" width="52" height="52" viewBox="0 0 52 52">
  <title>pixel-perfect</title>
  <g>
    <rect x="20.744" y="21.016" width="10" height="10" rx="1.25" ry="1.25" fill="#94a1ac"/>
    <path d="M52,26.016V26A25.917,25.917,0,0,0,44.423,7.673c-.016-.018-.021-.041-.039-.058s-.04-.023-.058-.039A25.916,25.916,0,0,0,26,0c-.076,0-.152.005-.228.006-.01,0-.018-.006-.029-.006s-.024.007-.037.008A25.914,25.914,0,0,0,7.673,7.577c-.018.016-.041.021-.058.039s-.023.04-.039.058A25.917,25.917,0,0,0,0,26v.018A25.916,25.916,0,0,0,7.577,44.327c.016.018.021.041.039.058s.04.023.058.039a25.915,25.915,0,0,0,18.034,7.569c.013,0,.024.007.037.007s.018-.005.029-.006c.076,0,.151.006.228.006a25.916,25.916,0,0,0,18.327-7.577c.018-.016.041-.021.058-.039s.023-.04.039-.058A25.916,25.916,0,0,0,52,26.018Zm-14.842,1H49.974a23.9,23.9,0,0,1-6.321,15.223L42.1,40.683A1,1,0,0,0,40.683,42.1l1.556,1.556a23.9,23.9,0,0,1-15.5,6.328V37.158a1,1,0,0,0-2,0V49.967A23.908,23.908,0,0,1,9.761,43.653L11.317,42.1A1,1,0,0,0,9.9,40.683L8.347,42.239A23.9,23.9,0,0,1,2.026,27.016H14.842a1,1,0,0,0,0-2H2.025A23.9,23.9,0,0,1,8.347,9.761L9.9,11.317A1,1,0,1,0,11.317,9.9L9.761,8.347A23.907,23.907,0,0,1,24.744,2.033V14.842a1,1,0,0,0,2,0V2.019a23.9,23.9,0,0,1,15.5,6.328L40.683,9.9A1,1,0,1,0,42.1,11.317l1.556-1.556a23.9,23.9,0,0,1,6.322,15.255H37.158a1,1,0,0,0,0,2Z" fill="#94a1ac"/>
  </g>
</svg>
