<?xml version="1.0" encoding="utf-8"?>
<!-- Generator: Adobe Illustrator 19.2.1, SVG Export Plug-In . SVG Version: 6.00 Build 0)  -->
<!DOCTYPE svg PUBLIC "-//W3C//DTD SVG 1.1//EN" "http://www.w3.org/Graphics/SVG/1.1/DTD/svg11.dtd">
<svg version="1.1" id="Layer_1" xmlns="http://www.w3.org/2000/svg" xmlns:xlink="http://www.w3.org/1999/xlink" x="0px" y="0px"
	 viewBox="0 0 47.9 39.9" enable-background="new 0 0 47.9 39.9" xml:space="preserve">
<g>
	<path fill="#FFFFFF" d="M28.1,28.9L15,0.6C14.9,0.3,14.6,0,14.3,0h-0.4c-0.3,0-0.6,0.3-0.7,0.5L0.1,28.8C-0.2,29.4,0.2,30,0.8,30
		h5.6L2,39.6c-0.1,0.2,0.2,0.4,0.3,0.2l13.1-15.3c0.3-0.5-0.1-1.5-0.7-1.5H9.2l4.9-9h0l6.3,13.4l0.9,1.8C21.7,30,22,30,22.8,30h4.6
		C28.1,30,28.4,29.4,28.1,28.9z"/>
	<g opacity="0.6">
		<path fill="#FFFFFF" d="M44.4,21.5c-0.3-0.3-0.8-0.3-1.1,0c-1.5,1.3-3.6,2-5.6,2c-4.7,0-8.2-3.8-8.2-8.5c0-4.7,3.5-8.6,8.2-8.6
			c2,0,4.1,0.8,5.6,2.1c0.3,0.3,0.8,0.3,1,0l3.3-3.4c0.3-0.3,0.3-0.8,0-1.2C44.7,1.3,41.6,0,37.5,0c-7,0-12.9,4.7-14.6,11.2L31,28.7
			c2,0.9,4.2,1.4,6.5,1.4c3.7,0,7.3-1.3,10.2-4.1c0.3-0.3,0.3-0.8,0-1.1L44.4,21.5z"/>
	</g>
</g>
</svg>
