
<svg width="64px" height="64px" viewBox="0 0 64 64" version="1.1" xmlns="http://www.w3.org/2000/svg" xmlns:xlink="http://www.w3.org/1999/xlink">
    <g id="Group-74" transform="translate(31.957089, 29.000000)" fill="none">
        <path d="M15.9637612,0 C17.3090633,0 18.6155863,0.166033393 19.8639565,0.47872664 L20.3880603,4.8419336 C22.276318,5.59128487 23.9292343,6.80608189 25.2052222,8.34473788 L29.5186221,7.49510717 C30.8869302,9.67129199 31.7456853,12.2002284 31.9275225,14.9145514 L27.9399964,16.7614 C27.8100516,18.8367532 27.1525828,20.7690636 26.1001177,22.4258038 L28.2398773,26.2620331 C26.56057,28.2687837 24.3983734,29.8576026 21.9319905,30.8497865 L18.9425976,27.627374 C17.9901135,27.8706646 16.9920413,28 15.9637612,28 C14.9351515,28 13.9367691,27.8705817 12.9840089,27.62714 L9.99553201,30.8497865 C7.52914907,29.8576026 5.36695245,28.2687837 3.68764517,26.2620331 L5.82740478,22.4258038 C4.77477052,20.7687974 4.11725959,18.8361322 3.98746353,16.7603996 L-7.63308653e-13,14.9145514 C0.181837134,12.2002284 1.04059231,9.67129199 2.40890037,7.49510717 L6.72230026,8.34473788 C7.99844089,6.80589775 9.65160006,5.59099411 11.5401401,4.84166459 L12.0633552,0.478779438 C13.3117891,0.166052083 14.6183834,0 15.9637612,0 Z M15.9637612,12 C13.7546222,12 11.9637612,13.790861 11.9637612,16 C11.9637612,18.209139 13.7546222,20 15.9637612,20 C18.1729002,20 19.9637612,18.209139 19.9637612,16 C19.9637612,13.790861 18.1729002,12 15.9637612,12 Z" id="Combined-Shape" fill="#B0B0B0"></path>
        <path d="M26.000061,16 C26.000061,10.4771525 21.5229085,6 16.000061,6 C10.4772135,6 6.00006096,10.4771525 6.00006096,16" id="Oval" stroke-opacity="0.6" stroke="#FFFFFF" stroke-width="2"></path>
        <path d="M6.00006096,16 C6.00006096,21.5228475 10.4772135,26 16.000061,26 C21.5229085,26 26.000061,21.5228475 26.000061,16" id="Oval" stroke-opacity="0.2" stroke="#000000" stroke-width="2"></path>
    </g>
    <g id="Group-73" transform="translate(0.797709, 3.912499)" fill="none">
        <path d="M23.7630251,-3.47272522e-13 C26.0802369,0.477893227 28.250989,1.3566304 30.1995874,2.56051751 L29.4900905,6.30275416 C30.8235844,7.28687254 32.0036086,8.46696893 32.9876461,9.8005261 L36.7292737,9.09020381 C37.9333186,11.0390576 38.8121283,13.2101234 39.2899791,15.5276775 L36.0957925,17.7024855 C36.1661453,18.3210897 36.2022906,18.950074 36.2022906,19.5875005 C36.2022906,20.5408879 36.1214312,21.4753895 35.9661962,22.3845216 L39.0912579,24.5128685 C38.4969436,26.8596216 37.4877678,29.0410552 36.1463466,30.9745533 L32.2990917,30.2449903 C31.4241408,31.2781163 30.42438,32.2021766 29.3230886,32.9938921 L30.0293146,36.7185119 C27.9554436,37.9713819 25.6356759,38.8582989 23.1594834,39.2897912 L20.9487785,36.0411242 C20.5373039,36.0718579 20.121624,36.0875005 19.7022906,36.0875005 C18.9632089,36.0875005 18.2354768,36.0389072 17.5221149,35.9447411 L15.3630528,39.1154812 C12.8614101,38.5620813 10.5358141,37.54024 8.48299021,36.146683 L9.20971021,32.3221381 C8.39301209,31.6484557 7.6422277,30.8977299 6.96848206,30.0810859 L3.14310819,30.8068009 C1.74955113,28.7539771 0.727709861,26.428381 0.174309939,23.9267384 L3.34505002,21.7676763 C3.25088398,21.0543144 3.20229064,20.3265822 3.20229064,19.5875005 C3.20229064,19.1681671 3.2179333,18.7524873 3.24866694,18.3410126 L1.4441973e-13,16.1303078 C0.431561214,13.6537196 1.31869272,11.3336063 2.57187984,9.25948246 L6.29626686,9.96619101 C7.0881546,8.86474838 8.01242754,7.86487368 9.04579481,6.98985774 L8.31523788,3.14344461 C10.2489473,1.80187678 12.4306464,0.79262703 14.7776921,0.198338451 L16.9053766,3.3235767 C17.814475,3.1683536 18.7489407,3.08750053 19.7022906,3.08750053 C20.3400596,3.08750053 20.9693774,3.1236847 21.5883029,3.19411211 L23.7630251,-3.47272522e-13 Z M19.7022906,14.0875005 C16.6647245,14.0875005 14.2022906,16.5499344 14.2022906,19.5875005 C14.2022906,22.6250667 16.6647245,25.0875005 19.7022906,25.0875005 C22.7398568,25.0875005 25.2022906,22.6250667 25.2022906,19.5875005 C25.2022906,16.5499344 22.7398568,14.0875005 19.7022906,14.0875005 Z" id="Combined-Shape" fill="#B0B0B0"></path>
        <g id="Oval" transform="translate(5.202291, 19.087501)" stroke="#000000" stroke-opacity="0.2" stroke-width="2">
            <path d="M0,0.5 C0,8.50812887 6.49187113,15 14.5,15 C22.5081289,15 29,8.50812887 29,0.5"></path>
        </g>
        <path d="M34.2022906,20.0875005 C34.2022906,11.8032293 27.7104195,5.08750053 19.7022906,5.08750053 C11.6941618,5.08750053 5.20229064,11.8032293 5.20229064,20.0875005" id="Oval" stroke-opacity="0.6" stroke="#FFFFFF" stroke-width="2"></path>
    </g>
</svg>