<svg xmlns="http://www.w3.org/2000/svg" width="49.826" height="49.607" viewBox="0 0 49.826 49.607">
  <title>design</title>
  <g>
    <path d="M45.923,4.07c-3.53-3.525-6.51-3.9-7.63-3.9A3.322,3.322,0,0,0,37.748.2a.975.975,0,0,0-.54.28l-9.888,9.884a1,1,0,0,0,0,1.413l0,0a1,1,0,0,0,1.413,0L30.923,9.59c.045.01.1.015.135.025a7.7,7.7,0,0,1,2.785.955l-3.159,3.159a1,1,0,0,0,0,1.413l0,0a1,1,0,0,0,1.413,0L35.543,11.7a18.19,18.19,0,0,1,1.63,1.455c.28.28.525.555.76.825l-3.5,3.5a1,1,0,1,0,1.412,1.413L39.133,15.6a6.868,6.868,0,0,1,1.15,3.59l-2.064,2.064a1,1,0,0,0,0,1.413l0,0a1,1,0,0,0,1.413,0l9.879-9.883a1.006,1.006,0,0,0,.28-.545C49.818,12.095,50.358,8.5,45.923,4.07Zm-3.115,12.6-.75.755a12.248,12.248,0,0,0-3.47-5.68,13.959,13.959,0,0,0-5.97-3.845L33.653,6.86c.865.135,3.035.51,6.06,3.535C42.878,13.56,42.868,16.07,42.808,16.665Zm1.83-1.83a12.062,12.062,0,0,0-3.51-5.855,14.006,14.006,0,0,0-5.805-3.79l3.025-3.025c.75.015,3.16.32,6.16,3.32,3.01,3.015,3.315,5.375,3.325,6.155Z" fill="#94a1ac"/>
    <path d="M12.613.293a1,1,0,0,0-1.414,0L.293,11.2a1,1,0,0,0,0,1.414l5.641,5.641h0l2.826,2.826h0l2.825,2.825,0,0,0,0,1.024,1.024L2.523,34.89a1,1,0,0,0-.29.56l-2,12.74a1.008,1.008,0,0,0,.99,1.155,1.229,1.229,0,0,0,.13-.01s13.475-1.86,13.525-1.92c.03-.025.065-.04.09-.065L25,37.316l.735.735,0,0,0,0,2.825,2.825h0l2.826,2.826h0l2.825,2.825,0,0,0,0,2.773,2.773a1,1,0,0,0,1.414,0L49.314,38.409a1,1,0,0,0,0-1.414Zm1.42,26.06.386.386h0l1.625,1.625-7.9,7.894A10.6,10.6,0,0,0,5.263,35ZM19.8,32.116l-7.6,7.6c-.235-.27-.485-.54-.765-.82A19.5,19.5,0,0,0,9.8,37.435l7.659-7.654ZM6.888,46.595a9.213,9.213,0,0,0-1.665-2.25A5.179,5.179,0,0,0,3.073,43l.975-6.215a8.34,8.34,0,0,1,3.33,1.345l.64.445a17.2,17.2,0,0,1,1.995,1.73c2.37,2.365,2.955,4.365,3.08,5.475Zm8.015-2.01a10.354,10.354,0,0,0-1.48-3.27l7.789-7.784L22.9,35.224h0l.675.675Zm22.8,2.608L36.34,45.832l1.449-1.449a1,1,0,0,0-1.414-1.414l-1.449,1.449L33.512,43l4.312-4.313a1,1,0,0,0-1.414-1.414L32.1,41.589l-1.414-1.415,1.449-1.449a1,1,0,0,0-1.414-1.414l-1.449,1.449-1.414-1.414L29.3,35.9a1,1,0,0,0-1.414-1.415l-1.449,1.449-1.414-1.414,4.312-4.313a1,1,0,0,0-1.414-1.414L23.612,33.1,22.2,31.69l1.449-1.449a1,1,0,0,0-1.414-1.414l-1.449,1.449L19.37,28.861l1.449-1.449A1,1,0,0,0,19.4,26l-1.449,1.449-1.414-1.414,4.313-4.313a1,1,0,0,0-1.414-1.414l-4.313,4.313L13.713,23.2l1.449-1.449a1,1,0,0,0-1.414-1.414L12.3,21.79l-1.414-1.414,1.449-1.449a1,1,0,0,0-1.414-1.414L9.47,18.962,8.056,17.547l4.313-4.313a1,1,0,0,0-1.414-1.414L6.642,16.133,5.228,14.719,6.677,13.27a1,1,0,0,0-1.414-1.414L3.813,13.305l-1.4-1.4,9.492-9.491L47.193,37.7Z" fill="#94a1ac"/>
  </g>
</svg>
