<svg width="64px" height="64px" viewBox="0 0 64 64" version="1.1" xmlns="http://www.w3.org/2000/svg" xmlns:xlink="http://www.w3.org/1999/xlink">
    <defs>
        <path d="M0,1.27009514e-13 L16,1.27009514e-13 L16,9 C16,10.1045695 15.1045695,11 14,11 L2,11 C0.8954305,11 1.3527075e-16,10.1045695 0,9 L0,1.27009514e-13 L0,1.27009514e-13 Z" id="path-aw6zoa95l2-1"></path>
    </defs>
    <g id="Page-1" stroke="none" stroke-width="1" fill="none" fill-rule="evenodd">
        <g id="Group-10" transform="translate(15.000000, 5.000000)">
            <path d="M17.0028052,0 C7.57758778,0.0491455899 -0.0287819321,7.66777748 0,17.0301333 C0,21.5376563 2.25735526,25.5429974 4.43480365,29.4183879 C6.6998378,33.4248303 9.02806673,37.5678309 9.02806673,42.3947239 C9.02806673,42.8002026 9.02806673,43.3352946 9.02806673,44 L25,44 C24.9820726,43.3352946 24.9731089,42.8002026 24.9731089,42.3947239 C24.9731089,37.5667296 27.3068812,33.4116149 29.5652633,29.3919573 C31.7482551,25.5066553 34,21.4880988 34,16.9816771 C34.0122982,7.63612295 26.4111073,0.04186497 17.0028052,0 Z" id="Path" fill="#FFDF91"></path>
            <path d="M17.0019801,5 C10.3488855,5.03408115 4.97968334,10.3173981 5,16.8099409 C5,19.9357873 6.59342724,22.713384 8.13044964,25.4008634 C9.72929727,28.1792238 11.372753,31.0522836 11.372753,34.3996046 C11.372753,34.6807932 11.372753,37.880925 11.372753,44 L22.6470588,44 C22.6344042,37.880925 22.6280769,34.6807932 22.6280769,34.3996046 C22.6280769,31.0515199 24.2754456,28.1700593 25.8695976,25.3825345 C27.410533,22.6881817 29,19.9014205 29,16.7763379 C29.0086811,10.2954466 23.6431346,5.02903223 17.0019801,5 Z" id="Path" fill="#FFF0AC"></path>
            <path d="M17,5 C10.372583,5 5,10.372583 5,17" id="Oval" stroke="#FFFFFF" stroke-width="2" stroke-linecap="round" stroke-linejoin="round"></path>
            <path d="M15,44 L15,17 C15,15.8954305 15.8954305,15 17,15 C18.1045695,15 19,15.8954305 19,17 L19,44" id="Rectangle" stroke="#FFFFFF" stroke-width="2"></path>
            <g id="Rectangle-Copy-27-+-Rectangle-Copy-27-+-Rectangle-Copy-28-Mask" transform="translate(9.000000, 44.000000)">
                <mask id="mask-aw6zoa95l2-2" fill="white">
                    <use xlink:href="#path-aw6zoa95l2-1"></use>
                </mask>
                <use id="Mask" fill="#B7B7B7" xlink:href="#path-aw6zoa95l2-1"></use>
                <polygon id="Rectangle-Copy-27" fill="#939393" mask="url(#mask-aw6zoa95l2-2)" points="5.77315973e-14 5 16 4 16 6 5.77315973e-14 7"></polygon>
                <polygon id="Rectangle-Copy-27" fill="#939393" mask="url(#mask-aw6zoa95l2-2)" points="6.03961325e-14 1 16 -1.02140518e-13 16 2 6.03961325e-14 3"></polygon>
                <polygon id="Rectangle-Copy-28" fill="#939393" mask="url(#mask-aw6zoa95l2-2)" points="5.95079541e-14 9 16 8 16 10 5.95079541e-14 11"></polygon>
            </g>
            <path d="M12,55 L22,55 L19.5857864,57.4142136 C19.2107137,57.7892863 18.7020059,58 18.1715729,58 L15.8284271,58 C15.2979941,58 14.7892863,57.7892863 14.4142136,57.4142136 L12,55 L12,55 Z" id="Rectangle" fill="#939393"></path>
        </g>
    </g>
</svg>