<svg xmlns="http://www.w3.org/2000/svg" width="49.429" height="49.325" viewBox="0 0 49.429 49.325">
  <title>lightbulb</title>
  <g>
    <path d="M24.593,2.329A15.417,15.417,0,0,0,9.257,17.793c0,4.093,2.036,7.73,4,11.249C15.3,32.68,17.4,36.442,17.4,40.825a1,1,0,0,0,1,1H30.782a1,1,0,0,0,1-1c0-4.384,2.105-8.157,4.142-11.807,1.969-3.528,4-7.177,4-11.269A15.4,15.4,0,0,0,24.593,2.329Zm-.937,37.418V22.51a1,1,0,0,1,2,0V39.747Zm10.522-11.7c-2.013,3.606-4.089,7.327-4.366,11.781H27.656V22.51a3,3,0,0,0-6,0V39.825H19.373c-.277-4.454-2.353-8.164-4.366-11.76-1.928-3.446-3.75-6.7-3.75-10.272a13.336,13.336,0,1,1,26.672-.043C37.929,21.322,36.107,24.587,34.178,28.044Z" fill="#94a1ac"/>
    <path d="M30.4,43.325H18.9a1,1,0,0,0,0,2H30.4a1,1,0,1,0,0-2Z" fill="#94a1ac"/>
    <path d="M29.9,47.325H19.4a1,1,0,0,0,0,2H29.9a1,1,0,1,0,0-2Z" fill="#94a1ac"/>
    <path d="M5,16.769H1a1,1,0,0,0,0,2H5a1,1,0,0,0,0-2Z" fill="#94a1ac"/>
    <path d="M48.429,16.769h-4a1,1,0,0,0,0,2h4a1,1,0,0,0,0-2Z" fill="#94a1ac"/>
    <path d="M10.067,4.536a1,1,0,0,0,1.414-1.414L8.653.293A1,1,0,0,0,7.239,1.707Z" fill="#94a1ac"/>
    <path d="M39.362,31a1,1,0,0,0-1.414,1.414l2.828,2.829a1,1,0,0,0,1.414-1.414Z" fill="#94a1ac"/>
    <path d="M10.067,31,7.239,33.831a1,1,0,1,0,1.414,1.414l2.828-2.829A1,1,0,0,0,10.067,31Z" fill="#94a1ac"/>
    <path d="M40.776.293,37.948,3.122a1,1,0,1,0,1.414,1.414L42.19,1.707A1,1,0,0,0,40.776.293Z" fill="#94a1ac"/>
  </g>
</svg>
