<?xml version="1.0" encoding="utf-8"?>
<!-- Generator: Adobe Illustrator 17.0.0, SVG Export Plug-In . SVG Version: 6.00 Build 0)  -->
<!DOCTYPE svg PUBLIC "-//W3C//DTD SVG 1.1//EN" "http://www.w3.org/Graphics/SVG/1.1/DTD/svg11.dtd">
<svg version="1.1" id="Layer_1" xmlns="http://www.w3.org/2000/svg" xmlns:xlink="http://www.w3.org/1999/xlink" x="0px" y="0px"
	 width="200px" height="200px" viewBox="0 0 200 200" enable-background="new 0 0 200 200" xml:space="preserve">
<path fill="#FFFFFF" d="M100,0C44.772,0,0,44.771,0,100c0,55.228,44.772,100,100,100s100-44.772,100-100C200,44.771,155.228,0,100,0
	z M95.173,141.653l-5.468,5.428c-4.969,4.931-11.494,7.393-18.019,7.393c-6.525,0-13.047-2.462-18.013-7.39
	c-4.828-4.791-7.484-11.162-7.484-17.944c0-6.782,2.656-13.155,7.483-17.945l20.117-19.959c12.506-12.409,26.866-14.191,36.582-4.55
	c2.623,2.602,2.639,6.84,0.034,9.462c-2.604,2.622-6.84,2.639-9.463,0.034c-5.715-5.669-13.558,0.418-17.727,4.552l-20.116,19.957
	c-2.274,2.258-3.525,5.259-3.525,8.448c0,3.189,1.251,6.188,3.527,8.447c4.734,4.699,12.439,4.695,17.176,0l5.465-5.426
	c2.624-2.604,6.863-2.589,9.465,0.032C97.81,134.814,97.796,139.051,95.173,141.653z M146.703,90.527l-21.462,21.289
	c-6.629,6.581-13.6,9.905-20.2,9.905c-5.389,0-10.532-2.216-15.037-6.688c-2.623-2.603-2.639-6.84-0.034-9.462
	c2.605-2.622,6.84-2.638,9.463-0.034c1.964,1.949,6.568,6.519,16.381-3.217l21.462-21.289c2.275-2.258,3.528-5.26,3.528-8.449
	c0-3.188-1.252-6.19-3.531-8.448c-4.274-4.24-10.826-6.3-15.831-1.331l-6.809,6.759c-2.622,2.604-6.859,2.589-9.464-0.034
	c-2.605-2.622-2.589-6.858,0.034-9.462l6.812-6.762c9.661-9.585,24.251-9.023,34.687,1.332c4.828,4.793,7.487,11.167,7.487,17.947
	C154.188,79.362,151.529,85.735,146.703,90.527z"/>
</svg>
