<svg width="24" height="24" viewBox="0 0 24 24" fill="currentColor" xmlns="http://www.w3.org/2000/svg">
  <path d="M21.9607 11.997C21.3555 11.9282 20.8191 12.3684 20.7504 12.9735C20.5303 14.9816 19.6501 16.7971 18.2197 18.2137C16.5692 19.8779 14.3549 20.7994 12.003 20.7994C9.6511 20.7994 7.43675 19.8779 5.77255 18.2275C2.33411 14.789 2.33411 9.205 5.77255 5.78032C8.45453 3.11209 12.5256 2.43816 15.9091 4.11611C16.4592 4.39119 17.1194 4.15737 17.3807 3.62098C17.6558 3.07083 17.422 2.41065 16.8856 2.14933C12.6494 0.0450039 7.56053 0.883983 4.21838 4.22614C-0.0727917 8.51731 -0.0727917 15.4905 4.21838 19.7816C6.29519 21.8584 9.05969 23 12.003 23C14.9463 23 17.7108 21.8584 19.7876 19.7816C21.5481 18.0211 22.6621 15.6968 22.9372 13.2211C23.006 12.6159 22.5659 12.0658 21.9607 11.997Z" />
  <path d="M8.93584 10.6617C8.50947 10.2354 7.80803 10.2354 7.38166 10.6617C6.9553 11.0881 6.9553 11.7896 7.38166 12.2159L11.2327 16.067C11.4528 16.287 11.7278 16.3833 12.0167 16.3833C12.3055 16.3833 12.5806 16.2733 12.8006 16.067L21.603 7.26457C22.0294 6.83821 22.0294 6.13677 21.603 5.7104C21.1767 5.28403 20.4752 5.28403 20.0489 5.7104L12.0029 13.7426L8.93584 10.6617Z" />
</svg>
